<?xml version="1.0" encoding="UTF-8" standalone="no"?>
<svg
   xmlns:dc="http://purl.org/dc/elements/1.1/"
   xmlns:cc="http://creativecommons.org/ns#"
   xmlns:rdf="http://www.w3.org/1999/02/22-rdf-syntax-ns#"
   xmlns:svg="http://www.w3.org/2000/svg"
   xmlns="http://www.w3.org/2000/svg"
   width="1920"
   height="1080"
   viewBox="0 0 1920 1080"
   id="svg2"
   version="1.1">
  <defs
     id="defs4" />
  <metadata
     id="metadata7">
    <rdf:RDF>
      <cc:Work
         rdf:about="">
        <dc:format>image/svg+xml</dc:format>
        <dc:type
           rdf:resource="http://purl.org/dc/dcmitype/StillImage" />
        <dc:title></dc:title>
      </cc:Work>
    </rdf:RDF>
  </metadata>
  <g
     id="texture">
    <path
       style="color:#000000;display:inline;overflow:visible;visibility:visible;opacity:1;fill:#ff0000;fill-opacity:1;stroke:none;stroke-width:5;stroke-linecap:square;stroke-linejoin:miter;stroke-miterlimit:4;stroke-dasharray:none;stroke-dashoffset:0;stroke-opacity:1;marker:none;enable-background:accumulate"
       d="m 1195.2941,540 c 0,70.60581 -6.5841,137.86949 -18.4906,199.04926 -11.9065,61.17975 -29.1356,116.27558 -50.4255,162.5457 -21.2899,46.27011 -46.6407,83.7145 -74.7909,109.59134 -28.1502,25.8769 -59.09973,40.1862 -91.5871,40.1862 -32.48733,0 -63.43688,-14.3093 -91.58708,-40.1862 C 840.26273,985.30949 814.91188,947.8651 793.62195,901.59499 772.33202,855.32487 755.10302,800.22904 743.19649,739.04927 731.28996,677.8695 724.70591,610.60581 724.70591,540 c 0,-70.60581 6.58405,-137.8695 18.49058,-199.04927 11.90653,-61.17976 29.13553,-116.2756 50.42546,-162.54572 C 814.91188,132.1349 840.26273,94.690524 868.41292,68.813668 896.56312,42.936811 927.51267,28.627476 960,28.627476 c 32.48737,0 63.4369,14.309335 91.5871,40.186192 28.1502,25.876856 53.501,63.321252 74.7909,109.591362 21.2899,46.27011 38.519,101.36596 50.4255,162.54571 11.9065,61.17977 18.4906,128.44345 18.4906,199.04926 z"
       id="ellipsoid" />
  </g>
</svg>
