<?xml version="1.0" encoding="UTF-8" standalone="no"?>
<svg
   xmlns:dc="http://purl.org/dc/elements/1.1/"
   xmlns:cc="http://creativecommons.org/ns#"
   xmlns:rdf="http://www.w3.org/1999/02/22-rdf-syntax-ns#"
   xmlns:svg="http://www.w3.org/2000/svg"
   xmlns="http://www.w3.org/2000/svg"
   xmlns:sodipodi="http://sodipodi.sourceforge.net/DTD/sodipodi-0.dtd"
   xmlns:inkscape="http://www.inkscape.org/namespaces/inkscape"
   width="1920"
   height="1080"
   viewBox="0 0 1920.0001 1080"
   id="svg2"
   version="1.1"
   inkscape:version="0.91 r"
   sodipodi:docname="houses-blue.svg">
  <sodipodi:namedview
     pagecolor="#ffffff"
     bordercolor="#666666"
     borderopacity="1"
     objecttolerance="10"
     gridtolerance="10"
     guidetolerance="10"
     inkscape:pageopacity="0"
     inkscape:pageshadow="2"
     inkscape:window-width="1920"
     inkscape:window-height="1056"
     id="namedview20"
     showgrid="false"
     inkscape:zoom="0.45078057"
     inkscape:cx="264.03132"
     inkscape:cy="451.26503"
     inkscape:window-x="0"
     inkscape:window-y="24"
     inkscape:window-maximized="1"
     inkscape:current-layer="texture" />
  <defs
     id="defs4">
    <mask
       maskUnits="userSpaceOnUse"
       id="mask4442">
      <rect
         style="color:#000000;display:inline;overflow:visible;visibility:visible;opacity:1;fill:#ffffff;fill-opacity:1;stroke:none;stroke-width:8.47599983;stroke-linecap:square;stroke-linejoin:miter;stroke-miterlimit:4;stroke-dasharray:none;stroke-dashoffset:0;stroke-opacity:1;marker:none;enable-background:accumulate"
         id="rect4444"
         width="305.71426"
         height="997.02789"
         x="640"
         y="75.219704"
         ry="0.14326891" />
    </mask>
    <mask
       maskUnits="userSpaceOnUse"
       id="mask4442-1">
      <rect
         style="color:#000000;display:inline;overflow:visible;visibility:visible;opacity:1;fill:#ffffff;fill-opacity:1;stroke:none;stroke-width:8.47599983;stroke-linecap:square;stroke-linejoin:miter;stroke-miterlimit:4;stroke-dasharray:none;stroke-dashoffset:0;stroke-opacity:1;marker:none;enable-background:accumulate"
         id="rect4444-6"
         width="305.71426"
         height="997.02789"
         x="640"
         y="75.219704"
         ry="0.14326891" />
    </mask>
    <mask
       maskUnits="userSpaceOnUse"
       id="mask4514">
      <rect
         style="color:#000000;display:inline;overflow:visible;visibility:visible;opacity:1;fill:#ffffff;fill-opacity:1;stroke:none;stroke-width:8.47599983;stroke-linecap:square;stroke-linejoin:miter;stroke-miterlimit:4;stroke-dasharray:none;stroke-dashoffset:0;stroke-opacity:1;marker:none;enable-background:accumulate"
         id="rect4516"
         width="305.71426"
         height="997.02789"
         x="640"
         y="75.219704"
         ry="0.14326891" />
    </mask>
    <mask
       maskUnits="userSpaceOnUse"
       id="mask4518">
      <rect
         style="color:#000000;display:inline;overflow:visible;visibility:visible;opacity:1;fill:#ffffff;fill-opacity:1;stroke:none;stroke-width:8.47599983;stroke-linecap:square;stroke-linejoin:miter;stroke-miterlimit:4;stroke-dasharray:none;stroke-dashoffset:0;stroke-opacity:1;marker:none;enable-background:accumulate"
         id="rect4520"
         width="305.71426"
         height="997.02789"
         x="640"
         y="75.219704"
         ry="0.14326891" />
    </mask>
  </defs>
  <metadata
     id="metadata7">
    <rdf:RDF>
      <cc:Work
         rdf:about="">
        <dc:format>image/svg+xml</dc:format>
        <dc:type
           rdf:resource="http://purl.org/dc/dcmitype/StillImage" />
        <dc:title></dc:title>
      </cc:Work>
    </rdf:RDF>
  </metadata>
  <g
     id="texture"
     style="display:inline">
    <path
       style="color:#000000;display:inline;overflow:visible;visibility:visible;opacity:1;fill:#000080;fill-opacity:1;stroke:none;stroke-width:8.47599983;stroke-linecap:square;stroke-linejoin:miter;stroke-miterlimit:4;stroke-dasharray:none;stroke-dashoffset:0;stroke-opacity:1;marker:none;enable-background:accumulate"
       d="m 896.1427,82.972628 c -0.079,0 -0.1426,0.0632 -0.1426,0.14258 l 0,996.742292 c 0,0.079 0.063,0.1426 0.1426,0.1426 l 305.4277,0 c 0.079,0 0.1445,-0.064 0.1445,-0.1426 l 0,-996.742292 c 0,-0.0794 -0.065,-0.14258 -0.1445,-0.14258 l -305.4277,0 z m 26.2246,47.623062 50.5684,0 c 0.054,0 0.098,0.0437 0.098,0.0977 l 0,78.48829 c 0,0.054 -0.044,0.0976 -0.098,0.0976 l -50.5684,0 c -0.054,0 -0.098,-0.0436 -0.098,-0.0976 l 0,-78.48829 c 0,-0.054 0.044,-0.0977 0.098,-0.0977 z m 62.1855,0 50.5684,0 c 0.054,0 0.098,0.0437 0.098,0.0977 l 0,78.48829 c 0,0.054 -0.044,0.0976 -0.098,0.0976 l -50.5684,0 c -0.054,0 -0.098,-0.0436 -0.098,-0.0976 l 0,-78.48829 c 0,-0.054 0.044,-0.0977 0.098,-0.0977 z m 62.1836,0 50.5684,0 c 0.054,0 0.098,0.0437 0.098,0.0977 l 0,78.48829 c 0,0.054 -0.044,0.0976 -0.098,0.0976 l -50.5684,0 c -0.054,0 -0.098,-0.0436 -0.098,-0.0976 l 0,-78.48829 c 0,-0.054 0.044,-0.0977 0.098,-0.0977 z m 99.8379,52.23242 21.418,0 c 0.043,0 0.078,0.0347 0.078,0.0781 l 0,63.16407 c 0,0.0434 -0.035,0.0781 -0.078,0.0781 l -21.418,0 c -0.043,0 -0.078,-0.0347 -0.078,-0.0781 l 0,-63.16407 c 0,-0.0434 0.035,-0.0781 0.078,-0.0781 z m -224.207,66.0586 50.5684,0 c 0.054,0 0.098,0.0437 0.098,0.0977 l 0,78.48829 c 0,0.0539 -0.044,0.0977 -0.098,0.0977 l -50.5684,0 c -0.054,0 -0.098,-0.0437 -0.098,-0.0977 l 0,-78.48829 c 0,-0.0539 0.044,-0.0977 0.098,-0.0977 z m 62.1855,0 50.5684,0 c 0.054,0 0.098,0.0437 0.098,0.0977 l 0,78.48829 c 0,0.0539 -0.044,0.0977 -0.098,0.0977 l -50.5684,0 c -0.054,0 -0.098,-0.0437 -0.098,-0.0977 l 0,-78.48829 c 0,-0.0539 0.044,-0.0977 0.098,-0.0977 z m 62.1836,0 50.5684,0 c 0.054,0 0.098,0.0437 0.098,0.0977 l 0,78.48829 c 0,0.0539 -0.044,0.0977 -0.098,0.0977 l -50.5684,0 c -0.054,0 -0.098,-0.0437 -0.098,-0.0977 l 0,-78.48829 c 0,-0.0539 0.044,-0.0977 0.098,-0.0977 z m 99.8379,52.23438 21.418,0 c 0.043,0 0.078,0.0347 0.078,0.0781 l 0,63.16212 c 0,0.0434 -0.035,0.0801 -0.078,0.0801 l -21.418,0 c -0.043,0 -0.078,-0.0367 -0.078,-0.0801 l 0,-63.16212 c 0,-0.0434 0.035,-0.0781 0.078,-0.0781 z m -224.207,66.0586 50.5684,0 c 0.054,0 0.098,0.0437 0.098,0.0977 l 0,78.48634 c 0,0.0539 -0.044,0.0976 -0.098,0.0976 l -50.5684,0 c -0.054,0 -0.098,-0.0436 -0.098,-0.0976 l 0,-78.48634 c 0,-0.0539 0.044,-0.0977 0.098,-0.0977 z m 62.1855,0 50.5684,0 c 0.054,0 0.098,0.0437 0.098,0.0977 l 0,78.48634 c 0,0.0539 -0.044,0.0976 -0.098,0.0976 l -50.5684,0 c -0.054,0 -0.098,-0.0436 -0.098,-0.0976 l 0,-78.48634 c 0,-0.0539 0.044,-0.0977 0.098,-0.0977 z m 62.1836,0 50.5684,0 c 0.054,0 0.098,0.0437 0.098,0.0977 l 0,78.48634 c 0,0.0539 -0.044,0.0976 -0.098,0.0976 l -50.5684,0 c -0.054,0 -0.098,-0.0436 -0.098,-0.0976 l 0,-78.48634 c 0,-0.0539 0.044,-0.0977 0.098,-0.0977 z m 99.8379,52.23244 21.418,0 c 0.043,0 0.078,0.0347 0.078,0.0781 l 0,63.16407 c 0,0.0434 -0.035,0.0781 -0.078,0.0781 l -21.418,0 c -0.043,0 -0.078,-0.0347 -0.078,-0.0781 l 0,-63.16407 c 0,-0.0434 0.035,-0.0781 0.078,-0.0781 z m -224.207,66.0586 50.5684,0 c 0.054,0 0.098,0.0437 0.098,0.0976 l 0,78.4883 c 0,0.0539 -0.044,0.0977 -0.098,0.0977 l -50.5684,0 c -0.054,0 -0.098,-0.0437 -0.098,-0.0977 l 0,-78.4883 c 0,-0.0539 0.044,-0.0976 0.098,-0.0976 z m 62.1855,0 50.5684,0 c 0.054,0 0.098,0.0437 0.098,0.0976 l 0,78.4883 c 0,0.0539 -0.044,0.0977 -0.098,0.0977 l -50.5684,0 c -0.054,0 -0.098,-0.0437 -0.098,-0.0977 l 0,-78.4883 c 0,-0.0539 0.044,-0.0976 0.098,-0.0976 z m 62.1836,0 50.5684,0 c 0.054,0 0.098,0.0437 0.098,0.0976 l 0,78.4883 c 0,0.0539 -0.044,0.0977 -0.098,0.0977 l -50.5684,0 c -0.054,0 -0.098,-0.0437 -0.098,-0.0977 l 0,-78.4883 c 0,-0.0539 0.044,-0.0976 0.098,-0.0976 z m 99.8379,52.23242 21.418,0 c 0.043,0 0.078,0.0347 0.078,0.0781 l 0,63.16407 c 0,0.0434 -0.035,0.0781 -0.078,0.0781 l -21.418,0 c -0.043,0 -0.078,-0.0346 -0.078,-0.0781 l 0,-63.16407 c 0,-0.0434 0.035,-0.0781 0.078,-0.0781 z m -224.207,66.0586 50.5684,0 c 0.054,0 0.098,0.0437 0.098,0.0977 l 0,78.48829 c 0,0.0539 -0.044,0.0977 -0.098,0.0977 l -50.5684,0 c -0.054,0 -0.098,-0.0437 -0.098,-0.0977 l 0,-78.48829 c 0,-0.0539 0.044,-0.0977 0.098,-0.0977 z m 62.1855,0 50.5684,0 c 0.054,0 0.098,0.0437 0.098,0.0977 l 0,78.48829 c 0,0.0539 -0.044,0.0977 -0.098,0.0977 l -50.5684,0 c -0.054,0 -0.098,-0.0437 -0.098,-0.0977 l 0,-78.48829 c 0,-0.0539 0.044,-0.0977 0.098,-0.0977 z m 62.1836,0 50.5684,0 c 0.054,0 0.098,0.0437 0.098,0.0977 l 0,78.48829 c 0,0.0539 -0.044,0.0977 -0.098,0.0977 l -50.5684,0 c -0.054,0 -0.098,-0.0437 -0.098,-0.0977 l 0,-78.48829 c 0,-0.0539 0.044,-0.0977 0.098,-0.0977 z m 99.8379,52.23244 21.418,0 c 0.043,0 0.078,0.0347 0.078,0.0781 l 0,63.16406 c 0,0.0434 -0.035,0.0781 -0.078,0.0781 l -21.418,0 c -0.043,0 -0.078,-0.0346 -0.078,-0.0781 l 0,-63.16406 c 0,-0.0434 0.035,-0.0781 0.078,-0.0781 z m -224.207,66.0586 50.5684,0 c 0.054,0 0.098,0.0437 0.098,0.0977 l 0,78.48828 c 0,0.0539 -0.044,0.0976 -0.098,0.0976 l -50.5684,0 c -0.054,0 -0.098,-0.0436 -0.098,-0.0976 l 0,-78.48828 c 0,-0.0539 0.044,-0.0977 0.098,-0.0977 z m 62.1855,0 50.5684,0 c 0.054,0 0.098,0.0437 0.098,0.0977 l 0,78.48828 c 0,0.0539 -0.044,0.0976 -0.098,0.0976 l -50.5684,0 c -0.054,0 -0.098,-0.0436 -0.098,-0.0976 l 0,-78.48828 c 0,-0.0539 0.044,-0.0977 0.098,-0.0977 z m 62.1836,0 50.5684,0 c 0.054,0 0.098,0.0437 0.098,0.0977 l 0,78.48828 c 0,0.0539 -0.044,0.0976 -0.098,0.0976 l -50.5684,0 c -0.054,0 -0.098,-0.0436 -0.098,-0.0976 l 0,-78.48828 c 0,-0.0539 0.044,-0.0977 0.098,-0.0977 z m 99.8379,52.23242 21.418,0 c 0.043,0 0.078,0.0366 0.078,0.0801 l 0,63.16212 c 0,0.0434 -0.035,0.0781 -0.078,0.0781 l -21.418,0 c -0.043,0 -0.078,-0.0347 -0.078,-0.0781 l 0,-63.16212 c 0,-0.0434 0.035,-0.0801 0.078,-0.0801 z m -224.207,66.06056 50.5684,0 c 0.054,0 0.098,0.0417 0.098,0.0957 l 0,78.48829 c 0,0.0539 -0.044,0.0977 -0.098,0.0977 l -50.5684,0 c -0.054,0 -0.098,-0.0437 -0.098,-0.0977 l 0,-78.48829 c 0,-0.0539 0.044,-0.0957 0.098,-0.0957 z m 62.1855,0 50.5684,0 c 0.054,0 0.098,0.0417 0.098,0.0957 l 0,78.48829 c 0,0.0539 -0.044,0.0977 -0.098,0.0977 l -50.5684,0 c -0.054,0 -0.098,-0.0437 -0.098,-0.0977 l 0,-78.48829 c 0,-0.0539 0.044,-0.0957 0.098,-0.0957 z m 62.1836,0 50.5684,0 c 0.054,0 0.098,0.0417 0.098,0.0957 l 0,78.48829 c 0,0.0539 -0.044,0.0977 -0.098,0.0977 l -50.5684,0 c -0.054,0 -0.098,-0.0437 -0.098,-0.0977 l 0,-78.48829 c 0,-0.0539 0.044,-0.0957 0.098,-0.0957 z m 99.8379,52.23243 21.418,0 c 0.043,0 0.078,0.0346 0.078,0.0781 l 0,63.16406 c 0,0.0434 -0.035,0.0781 -0.078,0.0781 l -21.418,0 c -0.043,0 -0.078,-0.0346 -0.078,-0.0781 l 0,-63.16406 c 0,-0.0434 0.035,-0.0781 0.078,-0.0781 z m -224.207,66.05859 50.5684,0 c 0.054,0 0.098,0.0437 0.098,0.0977 l 0,78.48821 c 0,0.054 -0.044,0.096 -0.098,0.096 l -50.5684,0 c -0.054,0 -0.098,-0.042 -0.098,-0.096 l 0,-78.48821 c 0,-0.0539 0.044,-0.0977 0.098,-0.0977 z m 62.1855,0 50.5684,0 c 0.054,0 0.098,0.0437 0.098,0.0977 l 0,78.48821 c 0,0.054 -0.044,0.096 -0.098,0.096 l -50.5684,0 c -0.054,0 -0.098,-0.042 -0.098,-0.096 l 0,-78.48821 c 0,-0.0539 0.044,-0.0977 0.098,-0.0977 z m 62.1836,0 50.5684,0 c 0.054,0 0.098,0.0437 0.098,0.0977 l 0,78.48821 c 0,0.054 -0.044,0.096 -0.098,0.096 l -50.5684,0 c -0.054,0 -0.098,-0.042 -0.098,-0.096 l 0,-78.48821 c 0,-0.0539 0.044,-0.0977 0.098,-0.0977 z"
       id="rect4210"
       inkscape:connector-curvature="0" />
    <path
       id="path4448"
       d="m 1236.1427,82.972628 c -0.079,0 -0.1426,0.0632 -0.1426,0.14258 l 0,996.742292 c 0,0.079 0.063,0.1426 0.1426,0.1426 l 305.4277,0 c 0.079,0 0.1445,-0.064 0.1445,-0.1426 l 0,-996.742292 c 0,-0.0794 -0.065,-0.14258 -0.1445,-0.14258 l -305.4277,0 z m 26.2246,47.623062 50.5684,0 c 0.054,0 0.098,0.0437 0.098,0.0977 l 0,78.48829 c 0,0.054 -0.044,0.0976 -0.098,0.0976 l -50.5684,0 c -0.054,0 -0.098,-0.0436 -0.098,-0.0976 l 0,-78.48829 c 0,-0.054 0.044,-0.0977 0.098,-0.0977 z m 62.1855,0 50.5684,0 c 0.054,0 0.098,0.0437 0.098,0.0977 l 0,78.48829 c 0,0.054 -0.044,0.0976 -0.098,0.0976 l -50.5684,0 c -0.054,0 -0.098,-0.0436 -0.098,-0.0976 l 0,-78.48829 c 0,-0.054 0.044,-0.0977 0.098,-0.0977 z m 62.1836,0 50.5684,0 c 0.054,0 0.098,0.0437 0.098,0.0977 l 0,78.48829 c 0,0.054 -0.044,0.0976 -0.098,0.0976 l -50.5684,0 c -0.054,0 -0.098,-0.0436 -0.098,-0.0976 l 0,-78.48829 c 0,-0.054 0.044,-0.0977 0.098,-0.0977 z m 99.8379,52.23242 21.418,0 c 0.043,0 0.078,0.0347 0.078,0.0781 l 0,63.16407 c 0,0.0434 -0.035,0.0781 -0.078,0.0781 l -21.418,0 c -0.043,0 -0.078,-0.0347 -0.078,-0.0781 l 0,-63.16407 c 0,-0.0434 0.035,-0.0781 0.078,-0.0781 z m -224.207,66.0586 50.5684,0 c 0.054,0 0.098,0.0437 0.098,0.0977 l 0,78.48829 c 0,0.0539 -0.044,0.0977 -0.098,0.0977 l -50.5684,0 c -0.054,0 -0.098,-0.0437 -0.098,-0.0977 l 0,-78.48829 c 0,-0.0539 0.044,-0.0977 0.098,-0.0977 z m 62.1855,0 50.5684,0 c 0.054,0 0.098,0.0437 0.098,0.0977 l 0,78.48829 c 0,0.0539 -0.044,0.0977 -0.098,0.0977 l -50.5684,0 c -0.054,0 -0.098,-0.0437 -0.098,-0.0977 l 0,-78.48829 c 0,-0.0539 0.044,-0.0977 0.098,-0.0977 z m 62.1836,0 50.5684,0 c 0.054,0 0.098,0.0437 0.098,0.0977 l 0,78.48829 c 0,0.0539 -0.044,0.0977 -0.098,0.0977 l -50.5684,0 c -0.054,0 -0.098,-0.0437 -0.098,-0.0977 l 0,-78.48829 c 0,-0.0539 0.044,-0.0977 0.098,-0.0977 z m 99.8379,52.23438 21.418,0 c 0.043,0 0.078,0.0347 0.078,0.0781 l 0,63.16212 c 0,0.0434 -0.035,0.0801 -0.078,0.0801 l -21.418,0 c -0.043,0 -0.078,-0.0367 -0.078,-0.0801 l 0,-63.16212 c 0,-0.0434 0.035,-0.0781 0.078,-0.0781 z m -224.207,66.0586 50.5684,0 c 0.054,0 0.098,0.0437 0.098,0.0977 l 0,78.48634 c 0,0.0539 -0.044,0.0976 -0.098,0.0976 l -50.5684,0 c -0.054,0 -0.098,-0.0436 -0.098,-0.0976 l 0,-78.48634 c 0,-0.0539 0.044,-0.0977 0.098,-0.0977 z m 62.1855,0 50.5684,0 c 0.054,0 0.098,0.0437 0.098,0.0977 l 0,78.48634 c 0,0.0539 -0.044,0.0976 -0.098,0.0976 l -50.5684,0 c -0.054,0 -0.098,-0.0436 -0.098,-0.0976 l 0,-78.48634 c 0,-0.0539 0.044,-0.0977 0.098,-0.0977 z m 62.1836,0 50.5684,0 c 0.054,0 0.098,0.0437 0.098,0.0977 l 0,78.48634 c 0,0.0539 -0.044,0.0976 -0.098,0.0976 l -50.5684,0 c -0.054,0 -0.098,-0.0436 -0.098,-0.0976 l 0,-78.48634 c 0,-0.0539 0.044,-0.0977 0.098,-0.0977 z m 99.8379,52.23244 21.418,0 c 0.043,0 0.078,0.0347 0.078,0.0781 l 0,63.16407 c 0,0.0434 -0.035,0.0781 -0.078,0.0781 l -21.418,0 c -0.043,0 -0.078,-0.0347 -0.078,-0.0781 l 0,-63.16407 c 0,-0.0434 0.035,-0.0781 0.078,-0.0781 z m -224.207,66.0586 50.5684,0 c 0.054,0 0.098,0.0437 0.098,0.0976 l 0,78.4883 c 0,0.0539 -0.044,0.0977 -0.098,0.0977 l -50.5684,0 c -0.054,0 -0.098,-0.0437 -0.098,-0.0977 l 0,-78.4883 c 0,-0.0539 0.044,-0.0976 0.098,-0.0976 z m 62.1855,0 50.5684,0 c 0.054,0 0.098,0.0437 0.098,0.0976 l 0,78.4883 c 0,0.0539 -0.044,0.0977 -0.098,0.0977 l -50.5684,0 c -0.054,0 -0.098,-0.0437 -0.098,-0.0977 l 0,-78.4883 c 0,-0.0539 0.044,-0.0976 0.098,-0.0976 z m 62.1836,0 50.5684,0 c 0.054,0 0.098,0.0437 0.098,0.0976 l 0,78.4883 c 0,0.0539 -0.044,0.0977 -0.098,0.0977 l -50.5684,0 c -0.054,0 -0.098,-0.0437 -0.098,-0.0977 l 0,-78.4883 c 0,-0.0539 0.044,-0.0976 0.098,-0.0976 z m 99.8379,52.23242 21.418,0 c 0.043,0 0.078,0.0347 0.078,0.0781 l 0,63.16407 c 0,0.0434 -0.035,0.0781 -0.078,0.0781 l -21.418,0 c -0.043,0 -0.078,-0.0346 -0.078,-0.0781 l 0,-63.16407 c 0,-0.0434 0.035,-0.0781 0.078,-0.0781 z m -224.207,66.0586 50.5684,0 c 0.054,0 0.098,0.0437 0.098,0.0977 l 0,78.48829 c 0,0.0539 -0.044,0.0977 -0.098,0.0977 l -50.5684,0 c -0.054,0 -0.098,-0.0437 -0.098,-0.0977 l 0,-78.48829 c 0,-0.0539 0.044,-0.0977 0.098,-0.0977 z m 62.1855,0 50.5684,0 c 0.054,0 0.098,0.0437 0.098,0.0977 l 0,78.48829 c 0,0.0539 -0.044,0.0977 -0.098,0.0977 l -50.5684,0 c -0.054,0 -0.098,-0.0437 -0.098,-0.0977 l 0,-78.48829 c 0,-0.0539 0.044,-0.0977 0.098,-0.0977 z m 62.1836,0 50.5684,0 c 0.054,0 0.098,0.0437 0.098,0.0977 l 0,78.48829 c 0,0.0539 -0.044,0.0977 -0.098,0.0977 l -50.5684,0 c -0.054,0 -0.098,-0.0437 -0.098,-0.0977 l 0,-78.48829 c 0,-0.0539 0.044,-0.0977 0.098,-0.0977 z m 99.8379,52.23244 21.418,0 c 0.043,0 0.078,0.0347 0.078,0.0781 l 0,63.16406 c 0,0.0434 -0.035,0.0781 -0.078,0.0781 l -21.418,0 c -0.043,0 -0.078,-0.0346 -0.078,-0.0781 l 0,-63.16406 c 0,-0.0434 0.035,-0.0781 0.078,-0.0781 z m -224.207,66.0586 50.5684,0 c 0.054,0 0.098,0.0437 0.098,0.0977 l 0,78.48828 c 0,0.0539 -0.044,0.0976 -0.098,0.0976 l -50.5684,0 c -0.054,0 -0.098,-0.0436 -0.098,-0.0976 l 0,-78.48828 c 0,-0.0539 0.044,-0.0977 0.098,-0.0977 z m 62.1855,0 50.5684,0 c 0.054,0 0.098,0.0437 0.098,0.0977 l 0,78.48828 c 0,0.0539 -0.044,0.0976 -0.098,0.0976 l -50.5684,0 c -0.054,0 -0.098,-0.0436 -0.098,-0.0976 l 0,-78.48828 c 0,-0.0539 0.044,-0.0977 0.098,-0.0977 z m 62.1836,0 50.5684,0 c 0.054,0 0.098,0.0437 0.098,0.0977 l 0,78.48828 c 0,0.0539 -0.044,0.0976 -0.098,0.0976 l -50.5684,0 c -0.054,0 -0.098,-0.0436 -0.098,-0.0976 l 0,-78.48828 c 0,-0.0539 0.044,-0.0977 0.098,-0.0977 z m 99.8379,52.23242 21.418,0 c 0.043,0 0.078,0.0366 0.078,0.0801 l 0,63.16212 c 0,0.0434 -0.035,0.0781 -0.078,0.0781 l -21.418,0 c -0.043,0 -0.078,-0.0347 -0.078,-0.0781 l 0,-63.16212 c 0,-0.0434 0.035,-0.0801 0.078,-0.0801 z m -224.207,66.06056 50.5684,0 c 0.054,0 0.098,0.0417 0.098,0.0957 l 0,78.48829 c 0,0.0539 -0.044,0.0977 -0.098,0.0977 l -50.5684,0 c -0.054,0 -0.098,-0.0437 -0.098,-0.0977 l 0,-78.48829 c 0,-0.0539 0.044,-0.0957 0.098,-0.0957 z m 62.1855,0 50.5684,0 c 0.054,0 0.098,0.0417 0.098,0.0957 l 0,78.48829 c 0,0.0539 -0.044,0.0977 -0.098,0.0977 l -50.5684,0 c -0.054,0 -0.098,-0.0437 -0.098,-0.0977 l 0,-78.48829 c 0,-0.0539 0.044,-0.0957 0.098,-0.0957 z m 62.1836,0 50.5684,0 c 0.054,0 0.098,0.0417 0.098,0.0957 l 0,78.48829 c 0,0.0539 -0.044,0.0977 -0.098,0.0977 l -50.5684,0 c -0.054,0 -0.098,-0.0437 -0.098,-0.0977 l 0,-78.48829 c 0,-0.0539 0.044,-0.0957 0.098,-0.0957 z m 99.8379,52.23243 21.418,0 c 0.043,0 0.078,0.0346 0.078,0.0781 l 0,63.16406 c 0,0.0434 -0.035,0.0781 -0.078,0.0781 l -21.418,0 c -0.043,0 -0.078,-0.0346 -0.078,-0.0781 l 0,-63.16406 c 0,-0.0434 0.035,-0.0781 0.078,-0.0781 z m -224.207,66.05859 50.5684,0 c 0.054,0 0.098,0.0437 0.098,0.0977 l 0,78.48821 c 0,0.054 -0.044,0.096 -0.098,0.096 l -50.5684,0 c -0.054,0 -0.098,-0.042 -0.098,-0.096 l 0,-78.48821 c 0,-0.0539 0.044,-0.0977 0.098,-0.0977 z m 62.1855,0 50.5684,0 c 0.054,0 0.098,0.0437 0.098,0.0977 l 0,78.48821 c 0,0.054 -0.044,0.096 -0.098,0.096 l -50.5684,0 c -0.054,0 -0.098,-0.042 -0.098,-0.096 l 0,-78.48821 c 0,-0.0539 0.044,-0.0977 0.098,-0.0977 z m 62.1836,0 50.5684,0 c 0.054,0 0.098,0.0437 0.098,0.0977 l 0,78.48821 c 0,0.054 -0.044,0.096 -0.098,0.096 l -50.5684,0 c -0.054,0 -0.098,-0.042 -0.098,-0.096 l 0,-78.48821 c 0,-0.0539 0.044,-0.0977 0.098,-0.0977 z"
       style="color:#000000;display:inline;overflow:visible;visibility:visible;opacity:1;fill:#000080;fill-opacity:1;stroke:none;stroke-width:8.47599983;stroke-linecap:square;stroke-linejoin:miter;stroke-miterlimit:4;stroke-dasharray:none;stroke-dashoffset:0;stroke-opacity:1;marker:none;enable-background:accumulate"
       inkscape:connector-curvature="0" />
    <path
       id="path4452"
       d="m 536.14263,82.972628 c -0.0794,0 -0.14258,0.0632 -0.14258,0.14258 l 0,996.742292 c 0,0.079 0.0632,0.1426 0.14258,0.1426 l 305.42777,0 c 0.079,0 0.1445,-0.064 0.1445,-0.1426 l 0,-996.742292 c 0,-0.0794 -0.065,-0.14258 -0.1445,-0.14258 l -305.42777,0 z m 26.22461,47.623062 50.56836,0 c 0.054,0 0.098,0.0437 0.098,0.0977 l 0,78.48829 c 0,0.054 -0.044,0.0976 -0.098,0.0976 l -50.56836,0 c -0.054,0 -0.0977,-0.0436 -0.0977,-0.0976 l 0,-78.48829 c 0,-0.054 0.0437,-0.0977 0.0977,-0.0977 z m 62.18556,0 50.5684,0 c 0.054,0 0.098,0.0437 0.098,0.0977 l 0,78.48829 c 0,0.054 -0.044,0.0976 -0.098,0.0976 l -50.5684,0 c -0.054,0 -0.098,-0.0436 -0.098,-0.0976 l 0,-78.48829 c 0,-0.054 0.044,-0.0977 0.098,-0.0977 z m 62.1836,0 50.5684,0 c 0.054,0 0.098,0.0437 0.098,0.0977 l 0,78.48829 c 0,0.054 -0.044,0.0976 -0.098,0.0976 l -50.5684,0 c -0.054,0 -0.098,-0.0436 -0.098,-0.0976 l 0,-78.48829 c 0,-0.054 0.044,-0.0977 0.098,-0.0977 z m 99.8379,52.23242 21.418,0 c 0.043,0 0.078,0.0347 0.078,0.0781 l 0,63.16407 c 0,0.0434 -0.035,0.0781 -0.078,0.0781 l -21.418,0 c -0.043,0 -0.078,-0.0347 -0.078,-0.0781 l 0,-63.16407 c 0,-0.0434 0.035,-0.0781 0.078,-0.0781 z m -224.20706,66.0586 50.56836,0 c 0.054,0 0.098,0.0437 0.098,0.0977 l 0,78.48829 c 0,0.0539 -0.044,0.0977 -0.098,0.0977 l -50.56836,0 c -0.054,0 -0.0977,-0.0437 -0.0977,-0.0977 l 0,-78.48829 c 0,-0.0539 0.0437,-0.0977 0.0977,-0.0977 z m 62.18556,0 50.5684,0 c 0.054,0 0.098,0.0437 0.098,0.0977 l 0,78.48829 c 0,0.0539 -0.044,0.0977 -0.098,0.0977 l -50.5684,0 c -0.054,0 -0.098,-0.0437 -0.098,-0.0977 l 0,-78.48829 c 0,-0.0539 0.044,-0.0977 0.098,-0.0977 z m 62.1836,0 50.5684,0 c 0.054,0 0.098,0.0437 0.098,0.0977 l 0,78.48829 c 0,0.0539 -0.044,0.0977 -0.098,0.0977 l -50.5684,0 c -0.054,0 -0.098,-0.0437 -0.098,-0.0977 l 0,-78.48829 c 0,-0.0539 0.044,-0.0977 0.098,-0.0977 z m 99.8379,52.23438 21.418,0 c 0.043,0 0.078,0.0347 0.078,0.0781 l 0,63.16212 c 0,0.0434 -0.035,0.0801 -0.078,0.0801 l -21.418,0 c -0.043,0 -0.078,-0.0367 -0.078,-0.0801 l 0,-63.16212 c 0,-0.0434 0.035,-0.0781 0.078,-0.0781 z m -224.20706,66.0586 50.56836,0 c 0.054,0 0.098,0.0437 0.098,0.0977 l 0,78.48634 c 0,0.0539 -0.044,0.0976 -0.098,0.0976 l -50.56836,0 c -0.054,0 -0.0977,-0.0436 -0.0977,-0.0976 l 0,-78.48634 c 0,-0.0539 0.0437,-0.0977 0.0977,-0.0977 z m 62.18556,0 50.5684,0 c 0.054,0 0.098,0.0437 0.098,0.0977 l 0,78.48634 c 0,0.0539 -0.044,0.0976 -0.098,0.0976 l -50.5684,0 c -0.054,0 -0.098,-0.0436 -0.098,-0.0976 l 0,-78.48634 c 0,-0.0539 0.044,-0.0977 0.098,-0.0977 z m 62.1836,0 50.5684,0 c 0.054,0 0.098,0.0437 0.098,0.0977 l 0,78.48634 c 0,0.0539 -0.044,0.0976 -0.098,0.0976 l -50.5684,0 c -0.054,0 -0.098,-0.0436 -0.098,-0.0976 l 0,-78.48634 c 0,-0.0539 0.044,-0.0977 0.098,-0.0977 z m 99.8379,52.23244 21.418,0 c 0.043,0 0.078,0.0347 0.078,0.0781 l 0,63.16407 c 0,0.0434 -0.035,0.0781 -0.078,0.0781 l -21.418,0 c -0.043,0 -0.078,-0.0347 -0.078,-0.0781 l 0,-63.16407 c 0,-0.0434 0.035,-0.0781 0.078,-0.0781 z m -224.20706,66.0586 50.56836,0 c 0.054,0 0.098,0.0437 0.098,0.0976 l 0,78.4883 c 0,0.0539 -0.044,0.0977 -0.098,0.0977 l -50.56836,0 c -0.054,0 -0.0977,-0.0437 -0.0977,-0.0977 l 0,-78.4883 c 0,-0.0539 0.0437,-0.0976 0.0977,-0.0976 z m 62.18556,0 50.5684,0 c 0.054,0 0.098,0.0437 0.098,0.0976 l 0,78.4883 c 0,0.0539 -0.044,0.0977 -0.098,0.0977 l -50.5684,0 c -0.054,0 -0.098,-0.0437 -0.098,-0.0977 l 0,-78.4883 c 0,-0.0539 0.044,-0.0976 0.098,-0.0976 z m 62.1836,0 50.5684,0 c 0.054,0 0.098,0.0437 0.098,0.0976 l 0,78.4883 c 0,0.0539 -0.044,0.0977 -0.098,0.0977 l -50.5684,0 c -0.054,0 -0.098,-0.0437 -0.098,-0.0977 l 0,-78.4883 c 0,-0.0539 0.044,-0.0976 0.098,-0.0976 z m 99.8379,52.23242 21.418,0 c 0.043,0 0.078,0.0347 0.078,0.0781 l 0,63.16407 c 0,0.0434 -0.035,0.0781 -0.078,0.0781 l -21.418,0 c -0.043,0 -0.078,-0.0346 -0.078,-0.0781 l 0,-63.16407 c 0,-0.0434 0.035,-0.0781 0.078,-0.0781 z m -224.20706,66.0586 50.56836,0 c 0.054,0 0.098,0.0437 0.098,0.0977 l 0,78.48829 c 0,0.0539 -0.044,0.0977 -0.098,0.0977 l -50.56836,0 c -0.054,0 -0.0977,-0.0437 -0.0977,-0.0977 l 0,-78.48829 c 0,-0.0539 0.0437,-0.0977 0.0977,-0.0977 z m 62.18556,0 50.5684,0 c 0.054,0 0.098,0.0437 0.098,0.0977 l 0,78.48829 c 0,0.0539 -0.044,0.0977 -0.098,0.0977 l -50.5684,0 c -0.054,0 -0.098,-0.0437 -0.098,-0.0977 l 0,-78.48829 c 0,-0.0539 0.044,-0.0977 0.098,-0.0977 z m 62.1836,0 50.5684,0 c 0.054,0 0.098,0.0437 0.098,0.0977 l 0,78.48829 c 0,0.0539 -0.044,0.0977 -0.098,0.0977 l -50.5684,0 c -0.054,0 -0.098,-0.0437 -0.098,-0.0977 l 0,-78.48829 c 0,-0.0539 0.044,-0.0977 0.098,-0.0977 z m 99.8379,52.23244 21.418,0 c 0.043,0 0.078,0.0347 0.078,0.0781 l 0,63.16406 c 0,0.0434 -0.035,0.0781 -0.078,0.0781 l -21.418,0 c -0.043,0 -0.078,-0.0346 -0.078,-0.0781 l 0,-63.16406 c 0,-0.0434 0.035,-0.0781 0.078,-0.0781 z m -224.20706,66.0586 50.56836,0 c 0.054,0 0.098,0.0437 0.098,0.0977 l 0,78.48828 c 0,0.0539 -0.044,0.0976 -0.098,0.0976 l -50.56836,0 c -0.054,0 -0.0977,-0.0436 -0.0977,-0.0976 l 0,-78.48828 c 0,-0.0539 0.0437,-0.0977 0.0977,-0.0977 z m 62.18556,0 50.5684,0 c 0.054,0 0.098,0.0437 0.098,0.0977 l 0,78.48828 c 0,0.0539 -0.044,0.0976 -0.098,0.0976 l -50.5684,0 c -0.054,0 -0.098,-0.0436 -0.098,-0.0976 l 0,-78.48828 c 0,-0.0539 0.044,-0.0977 0.098,-0.0977 z m 62.1836,0 50.5684,0 c 0.054,0 0.098,0.0437 0.098,0.0977 l 0,78.48828 c 0,0.0539 -0.044,0.0976 -0.098,0.0976 l -50.5684,0 c -0.054,0 -0.098,-0.0436 -0.098,-0.0976 l 0,-78.48828 c 0,-0.0539 0.044,-0.0977 0.098,-0.0977 z m 99.8379,52.23242 21.418,0 c 0.043,0 0.078,0.0366 0.078,0.0801 l 0,63.16212 c 0,0.0434 -0.035,0.0781 -0.078,0.0781 l -21.418,0 c -0.043,0 -0.078,-0.0347 -0.078,-0.0781 l 0,-63.16212 c 0,-0.0434 0.035,-0.0801 0.078,-0.0801 z m -224.20706,66.06056 50.56836,0 c 0.054,0 0.098,0.0417 0.098,0.0957 l 0,78.48829 c 0,0.0539 -0.044,0.0977 -0.098,0.0977 l -50.56836,0 c -0.054,0 -0.0977,-0.0437 -0.0977,-0.0977 l 0,-78.48829 c 0,-0.0539 0.0437,-0.0957 0.0977,-0.0957 z m 62.18556,0 50.5684,0 c 0.054,0 0.098,0.0417 0.098,0.0957 l 0,78.48829 c 0,0.0539 -0.044,0.0977 -0.098,0.0977 l -50.5684,0 c -0.054,0 -0.098,-0.0437 -0.098,-0.0977 l 0,-78.48829 c 0,-0.0539 0.044,-0.0957 0.098,-0.0957 z m 62.1836,0 50.5684,0 c 0.054,0 0.098,0.0417 0.098,0.0957 l 0,78.48829 c 0,0.0539 -0.044,0.0977 -0.098,0.0977 l -50.5684,0 c -0.054,0 -0.098,-0.0437 -0.098,-0.0977 l 0,-78.48829 c 0,-0.0539 0.044,-0.0957 0.098,-0.0957 z m 99.8379,52.23243 21.418,0 c 0.043,0 0.078,0.0346 0.078,0.0781 l 0,63.16406 c 0,0.0434 -0.035,0.0781 -0.078,0.0781 l -21.418,0 c -0.043,0 -0.078,-0.0346 -0.078,-0.0781 l 0,-63.16406 c 0,-0.0434 0.035,-0.0781 0.078,-0.0781 z m -224.20706,66.05859 50.56836,0 c 0.054,0 0.098,0.0437 0.098,0.0977 l 0,78.48821 c 0,0.054 -0.044,0.096 -0.098,0.096 l -50.56836,0 c -0.054,0 -0.0977,-0.042 -0.0977,-0.096 l 0,-78.48821 c 0,-0.0539 0.0437,-0.0977 0.0977,-0.0977 z m 62.18556,0 50.5684,0 c 0.054,0 0.098,0.0437 0.098,0.0977 l 0,78.48821 c 0,0.054 -0.044,0.096 -0.098,0.096 l -50.5684,0 c -0.054,0 -0.098,-0.042 -0.098,-0.096 l 0,-78.48821 c 0,-0.0539 0.044,-0.0977 0.098,-0.0977 z m 62.1836,0 50.5684,0 c 0.054,0 0.098,0.0437 0.098,0.0977 l 0,78.48821 c 0,0.054 -0.044,0.096 -0.098,0.096 l -50.5684,0 c -0.054,0 -0.098,-0.042 -0.098,-0.096 l 0,-78.48821 c 0,-0.0539 0.044,-0.0977 0.098,-0.0977 z"
       style="color:#000000;display:inline;overflow:visible;visibility:visible;opacity:1;fill:#000080;fill-opacity:1;stroke:none;stroke-width:8.47599983;stroke-linecap:square;stroke-linejoin:miter;stroke-miterlimit:4;stroke-dasharray:none;stroke-dashoffset:0;stroke-opacity:1;marker:none;enable-background:accumulate"
       inkscape:connector-curvature="0" />
  </g>
</svg>
