<?xml version="1.0" encoding="UTF-8" standalone="no"?>
<svg
   xmlns:dc="http://purl.org/dc/elements/1.1/"
   xmlns:cc="http://creativecommons.org/ns#"
   xmlns:rdf="http://www.w3.org/1999/02/22-rdf-syntax-ns#"
   xmlns:svg="http://www.w3.org/2000/svg"
   xmlns="http://www.w3.org/2000/svg"
   xmlns:sodipodi="http://sodipodi.sourceforge.net/DTD/sodipodi-0.dtd"
   xmlns:inkscape="http://www.inkscape.org/namespaces/inkscape"
   width="1920"
   height="1080"
   viewBox="0 0 1920.0001 1080"
   id="svg2"
   version="1.1"
   inkscape:version="0.91 r"
   sodipodi:docname="houses-gray.svg">
  <sodipodi:namedview
     pagecolor="#ffffff"
     bordercolor="#666666"
     borderopacity="1"
     objecttolerance="10"
     gridtolerance="10"
     guidetolerance="10"
     inkscape:pageopacity="0"
     inkscape:pageshadow="2"
     inkscape:window-width="1920"
     inkscape:window-height="1056"
     id="namedview20"
     showgrid="false"
     inkscape:zoom="0.45078057"
     inkscape:cx="1029.3704"
     inkscape:cy="451.26503"
     inkscape:window-x="0"
     inkscape:window-y="24"
     inkscape:window-maximized="1"
     inkscape:current-layer="texture" />
  <defs
     id="defs4">
    <mask
       maskUnits="userSpaceOnUse"
       id="mask4442">
      <rect
         style="color:#000000;display:inline;overflow:visible;visibility:visible;opacity:1;fill:#ffffff;fill-opacity:1;stroke:none;stroke-width:8.47599983;stroke-linecap:square;stroke-linejoin:miter;stroke-miterlimit:4;stroke-dasharray:none;stroke-dashoffset:0;stroke-opacity:1;marker:none;enable-background:accumulate"
         id="rect4444"
         width="305.71426"
         height="997.02789"
         x="640"
         y="75.219704"
         ry="0.14326891" />
    </mask>
    <mask
       maskUnits="userSpaceOnUse"
       id="mask4442-1">
      <rect
         style="color:#000000;display:inline;overflow:visible;visibility:visible;opacity:1;fill:#ffffff;fill-opacity:1;stroke:none;stroke-width:8.47599983;stroke-linecap:square;stroke-linejoin:miter;stroke-miterlimit:4;stroke-dasharray:none;stroke-dashoffset:0;stroke-opacity:1;marker:none;enable-background:accumulate"
         id="rect4444-6"
         width="305.71426"
         height="997.02789"
         x="640"
         y="75.219704"
         ry="0.14326891" />
    </mask>
    <mask
       maskUnits="userSpaceOnUse"
       id="mask4514">
      <rect
         style="color:#000000;display:inline;overflow:visible;visibility:visible;opacity:1;fill:#ffffff;fill-opacity:1;stroke:none;stroke-width:8.47599983;stroke-linecap:square;stroke-linejoin:miter;stroke-miterlimit:4;stroke-dasharray:none;stroke-dashoffset:0;stroke-opacity:1;marker:none;enable-background:accumulate"
         id="rect4516"
         width="305.71426"
         height="997.02789"
         x="640"
         y="75.219704"
         ry="0.14326891" />
    </mask>
    <mask
       maskUnits="userSpaceOnUse"
       id="mask4518">
      <rect
         style="color:#000000;display:inline;overflow:visible;visibility:visible;opacity:1;fill:#ffffff;fill-opacity:1;stroke:none;stroke-width:8.47599983;stroke-linecap:square;stroke-linejoin:miter;stroke-miterlimit:4;stroke-dasharray:none;stroke-dashoffset:0;stroke-opacity:1;marker:none;enable-background:accumulate"
         id="rect4520"
         width="305.71426"
         height="997.02789"
         x="640"
         y="75.219704"
         ry="0.14326891" />
    </mask>
  </defs>
  <metadata
     id="metadata7">
    <rdf:RDF>
      <cc:Work
         rdf:about="">
        <dc:format>image/svg+xml</dc:format>
        <dc:type
           rdf:resource="http://purl.org/dc/dcmitype/StillImage" />
        <dc:title />
      </cc:Work>
    </rdf:RDF>
  </metadata>
  <g
     id="texture"
     style="display:inline">
    <path
       style="color:#000000;display:inline;overflow:visible;visibility:visible;opacity:1;fill:#333333;fill-opacity:1;stroke:none;stroke-width:5;stroke-linecap:square;stroke-linejoin:miter;stroke-miterlimit:4;stroke-dasharray:none;stroke-dashoffset:0;stroke-opacity:1;marker:none;enable-background:accumulate"
       d="M 0.13867188 0 C 0.061355921 0 0 0.061355925 0 0.13867188 L 0 1079.8613 C 0 1079.9386 0.061355921 1080 0.13867188 1080 L 1919.8613 1080 C 1919.9386 1080 1920 1079.9386 1920 1079.8613 L 1920 0.13867188 C 1920 0.061355925 1919.9386 0 1919.8613 0 L 0.13867188 0 z M 562.36719 130.5957 L 612.93555 130.5957 C 612.98955 130.5957 613.0332 130.63936 613.0332 130.69336 L 613.0332 209.18164 C 613.0332 209.23564 612.98955 209.2793 612.93555 209.2793 L 562.36719 209.2793 C 562.31319 209.2793 562.26953 209.23564 562.26953 209.18164 L 562.26953 130.69336 C 562.26953 130.63936 562.31319 130.5957 562.36719 130.5957 z M 624.55273 130.5957 L 675.12109 130.5957 C 675.17509 130.5957 675.21875 130.63936 675.21875 130.69336 L 675.21875 209.18164 C 675.21875 209.23564 675.17509 209.2793 675.12109 209.2793 L 624.55273 209.2793 C 624.49873 209.2793 624.45508 209.23564 624.45508 209.18164 L 624.45508 130.69336 C 624.45508 130.63936 624.49873 130.5957 624.55273 130.5957 z M 686.73633 130.5957 L 737.30469 130.5957 C 737.35869 130.5957 737.40234 130.63936 737.40234 130.69336 L 737.40234 209.18164 C 737.40234 209.23564 737.35869 209.2793 737.30469 209.2793 L 686.73633 209.2793 C 686.68233 209.2793 686.63867 209.23564 686.63867 209.18164 L 686.63867 130.69336 C 686.63867 130.63936 686.68233 130.5957 686.73633 130.5957 z M 922.36719 130.5957 L 972.93555 130.5957 C 972.98955 130.5957 973.0332 130.63936 973.0332 130.69336 L 973.0332 209.18164 C 973.0332 209.23564 972.98955 209.2793 972.93555 209.2793 L 922.36719 209.2793 C 922.31319 209.2793 922.26953 209.23564 922.26953 209.18164 L 922.26953 130.69336 C 922.26953 130.63936 922.31319 130.5957 922.36719 130.5957 z M 984.55273 130.5957 L 1035.1211 130.5957 C 1035.1751 130.5957 1035.2188 130.63936 1035.2188 130.69336 L 1035.2188 209.18164 C 1035.2188 209.23564 1035.1751 209.2793 1035.1211 209.2793 L 984.55273 209.2793 C 984.49873 209.2793 984.45508 209.23564 984.45508 209.18164 L 984.45508 130.69336 C 984.45508 130.63936 984.49873 130.5957 984.55273 130.5957 z M 1046.7363 130.5957 L 1097.3047 130.5957 C 1097.3587 130.5957 1097.4023 130.63936 1097.4023 130.69336 L 1097.4023 209.18164 C 1097.4023 209.23564 1097.3587 209.2793 1097.3047 209.2793 L 1046.7363 209.2793 C 1046.6823 209.2793 1046.6387 209.23564 1046.6387 209.18164 L 1046.6387 130.69336 C 1046.6387 130.63936 1046.6823 130.5957 1046.7363 130.5957 z M 1262.3672 130.5957 L 1312.9355 130.5957 C 1312.9895 130.5957 1313.0332 130.63936 1313.0332 130.69336 L 1313.0332 209.18164 C 1313.0332 209.23564 1312.9895 209.2793 1312.9355 209.2793 L 1262.3672 209.2793 C 1262.3132 209.2793 1262.2695 209.23564 1262.2695 209.18164 L 1262.2695 130.69336 C 1262.2695 130.63936 1262.3132 130.5957 1262.3672 130.5957 z M 1324.5527 130.5957 L 1375.1211 130.5957 C 1375.1751 130.5957 1375.2187 130.63936 1375.2188 130.69336 L 1375.2188 209.18164 C 1375.2188 209.23564 1375.1751 209.2793 1375.1211 209.2793 L 1324.5527 209.2793 C 1324.4987 209.2793 1324.4551 209.23564 1324.4551 209.18164 L 1324.4551 130.69336 C 1324.4551 130.63936 1324.4987 130.5957 1324.5527 130.5957 z M 1386.7363 130.5957 L 1437.3047 130.5957 C 1437.3587 130.5957 1437.4023 130.63936 1437.4023 130.69336 L 1437.4023 209.18164 C 1437.4023 209.23564 1437.3587 209.2793 1437.3047 209.2793 L 1386.7363 209.2793 C 1386.6823 209.2793 1386.6387 209.23564 1386.6387 209.18164 L 1386.6387 130.69336 C 1386.6387 130.63936 1386.6823 130.5957 1386.7363 130.5957 z M 786.57422 182.82812 L 807.99219 182.82812 C 808.03519 182.82812 808.07031 182.86285 808.07031 182.90625 L 808.07031 246.07031 C 808.07031 246.11371 808.03519 246.14844 807.99219 246.14844 L 786.57422 246.14844 C 786.53122 246.14844 786.49609 246.11371 786.49609 246.07031 L 786.49609 182.90625 C 786.49609 182.86285 786.53122 182.82812 786.57422 182.82812 z M 1146.5742 182.82812 L 1167.9922 182.82812 C 1168.0352 182.82812 1168.0703 182.86285 1168.0703 182.90625 L 1168.0703 246.07031 C 1168.0703 246.11371 1168.0352 246.14844 1167.9922 246.14844 L 1146.5742 246.14844 C 1146.5312 246.14844 1146.4961 246.11371 1146.4961 246.07031 L 1146.4961 182.90625 C 1146.4961 182.86285 1146.5312 182.82812 1146.5742 182.82812 z M 1486.5742 182.82812 L 1507.9922 182.82812 C 1508.0352 182.82812 1508.0703 182.86285 1508.0703 182.90625 L 1508.0703 246.07031 C 1508.0703 246.11371 1508.0352 246.14844 1507.9922 246.14844 L 1486.5742 246.14844 C 1486.5312 246.14844 1486.4961 246.11371 1486.4961 246.07031 L 1486.4961 182.90625 C 1486.4961 182.86285 1486.5312 182.82812 1486.5742 182.82812 z M 562.36719 248.88672 L 612.93555 248.88672 C 612.98955 248.88672 613.0332 248.93038 613.0332 248.98438 L 613.0332 327.47266 C 613.0332 327.52656 612.98955 327.57031 612.93555 327.57031 L 562.36719 327.57031 C 562.31319 327.57031 562.26953 327.52666 562.26953 327.47266 L 562.26953 248.98438 C 562.26953 248.93048 562.31319 248.88672 562.36719 248.88672 z M 624.55273 248.88672 L 675.12109 248.88672 C 675.17509 248.88672 675.21875 248.93038 675.21875 248.98438 L 675.21875 327.47266 C 675.21875 327.52656 675.17509 327.57031 675.12109 327.57031 L 624.55273 327.57031 C 624.49873 327.57031 624.45508 327.52666 624.45508 327.47266 L 624.45508 248.98438 C 624.45508 248.93048 624.49873 248.88672 624.55273 248.88672 z M 686.73633 248.88672 L 737.30469 248.88672 C 737.35869 248.88672 737.40234 248.93038 737.40234 248.98438 L 737.40234 327.47266 C 737.40234 327.52656 737.35869 327.57031 737.30469 327.57031 L 686.73633 327.57031 C 686.68233 327.57031 686.63867 327.52666 686.63867 327.47266 L 686.63867 248.98438 C 686.63867 248.93048 686.68233 248.88672 686.73633 248.88672 z M 922.36719 248.88672 L 972.93555 248.88672 C 972.98955 248.88672 973.0332 248.93038 973.0332 248.98438 L 973.0332 327.47266 C 973.0332 327.52656 972.98955 327.57031 972.93555 327.57031 L 922.36719 327.57031 C 922.31319 327.57031 922.26953 327.52666 922.26953 327.47266 L 922.26953 248.98438 C 922.26953 248.93048 922.31319 248.88672 922.36719 248.88672 z M 984.55273 248.88672 L 1035.1211 248.88672 C 1035.1751 248.88672 1035.2188 248.93038 1035.2188 248.98438 L 1035.2188 327.47266 C 1035.2188 327.52656 1035.1751 327.57031 1035.1211 327.57031 L 984.55273 327.57031 C 984.49873 327.57031 984.45508 327.52666 984.45508 327.47266 L 984.45508 248.98438 C 984.45508 248.93048 984.49873 248.88672 984.55273 248.88672 z M 1046.7363 248.88672 L 1097.3047 248.88672 C 1097.3587 248.88672 1097.4023 248.93038 1097.4023 248.98438 L 1097.4023 327.47266 C 1097.4023 327.52656 1097.3587 327.57031 1097.3047 327.57031 L 1046.7363 327.57031 C 1046.6823 327.57031 1046.6387 327.52666 1046.6387 327.47266 L 1046.6387 248.98438 C 1046.6387 248.93048 1046.6823 248.88672 1046.7363 248.88672 z M 1262.3672 248.88672 L 1312.9355 248.88672 C 1312.9895 248.88672 1313.0332 248.93038 1313.0332 248.98438 L 1313.0332 327.47266 C 1313.0332 327.52656 1312.9895 327.57031 1312.9355 327.57031 L 1262.3672 327.57031 C 1262.3132 327.57031 1262.2695 327.52666 1262.2695 327.47266 L 1262.2695 248.98438 C 1262.2695 248.93048 1262.3132 248.88672 1262.3672 248.88672 z M 1324.5527 248.88672 L 1375.1211 248.88672 C 1375.1751 248.88672 1375.2187 248.93038 1375.2188 248.98438 L 1375.2188 327.47266 C 1375.2188 327.52656 1375.1751 327.57031 1375.1211 327.57031 L 1324.5527 327.57031 C 1324.4987 327.57031 1324.4551 327.52666 1324.4551 327.47266 L 1324.4551 248.98438 C 1324.4551 248.93048 1324.4987 248.88672 1324.5527 248.88672 z M 1386.7363 248.88672 L 1437.3047 248.88672 C 1437.3587 248.88672 1437.4023 248.93038 1437.4023 248.98438 L 1437.4023 327.47266 C 1437.4023 327.52656 1437.3587 327.57031 1437.3047 327.57031 L 1386.7363 327.57031 C 1386.6823 327.57031 1386.6387 327.52666 1386.6387 327.47266 L 1386.6387 248.98438 C 1386.6387 248.93048 1386.6823 248.88672 1386.7363 248.88672 z M 786.57422 301.12109 L 807.99219 301.12109 C 808.03519 301.12109 808.07031 301.15582 808.07031 301.19922 L 808.07031 364.36133 C 808.07031 364.40473 808.03519 364.44141 807.99219 364.44141 L 786.57422 364.44141 C 786.53122 364.44141 786.49609 364.40473 786.49609 364.36133 L 786.49609 301.19922 C 786.49609 301.15582 786.53122 301.12109 786.57422 301.12109 z M 1146.5742 301.12109 L 1167.9922 301.12109 C 1168.0352 301.12109 1168.0703 301.15582 1168.0703 301.19922 L 1168.0703 364.36133 C 1168.0703 364.40473 1168.0352 364.44141 1167.9922 364.44141 L 1146.5742 364.44141 C 1146.5312 364.44141 1146.4961 364.40473 1146.4961 364.36133 L 1146.4961 301.19922 C 1146.4961 301.15582 1146.5312 301.12109 1146.5742 301.12109 z M 1486.5742 301.12109 L 1507.9922 301.12109 C 1508.0352 301.12109 1508.0703 301.15582 1508.0703 301.19922 L 1508.0703 364.36133 C 1508.0703 364.40473 1508.0352 364.44141 1507.9922 364.44141 L 1486.5742 364.44141 C 1486.5312 364.44141 1486.4961 364.40473 1486.4961 364.36133 L 1486.4961 301.19922 C 1486.4961 301.15582 1486.5312 301.12109 1486.5742 301.12109 z M 562.36719 367.17969 L 612.93555 367.17969 C 612.98955 367.17969 613.0332 367.22334 613.0332 367.27734 L 613.0332 445.76367 C 613.0332 445.81757 612.98955 445.86133 612.93555 445.86133 L 562.36719 445.86133 C 562.31319 445.86133 562.26953 445.81767 562.26953 445.76367 L 562.26953 367.27734 C 562.26953 367.22344 562.31319 367.17969 562.36719 367.17969 z M 624.55273 367.17969 L 675.12109 367.17969 C 675.17509 367.17969 675.21875 367.22334 675.21875 367.27734 L 675.21875 445.76367 C 675.21875 445.81757 675.17509 445.86133 675.12109 445.86133 L 624.55273 445.86133 C 624.49873 445.86133 624.45508 445.81767 624.45508 445.76367 L 624.45508 367.27734 C 624.45508 367.22344 624.49873 367.17969 624.55273 367.17969 z M 686.73633 367.17969 L 737.30469 367.17969 C 737.35869 367.17969 737.40234 367.22334 737.40234 367.27734 L 737.40234 445.76367 C 737.40234 445.81757 737.35869 445.86133 737.30469 445.86133 L 686.73633 445.86133 C 686.68233 445.86133 686.63867 445.81767 686.63867 445.76367 L 686.63867 367.27734 C 686.63867 367.22344 686.68233 367.17969 686.73633 367.17969 z M 922.36719 367.17969 L 972.93555 367.17969 C 972.98955 367.17969 973.0332 367.22334 973.0332 367.27734 L 973.0332 445.76367 C 973.0332 445.81757 972.98955 445.86133 972.93555 445.86133 L 922.36719 445.86133 C 922.31319 445.86133 922.26953 445.81767 922.26953 445.76367 L 922.26953 367.27734 C 922.26953 367.22344 922.31319 367.17969 922.36719 367.17969 z M 984.55273 367.17969 L 1035.1211 367.17969 C 1035.1751 367.17969 1035.2188 367.22334 1035.2188 367.27734 L 1035.2188 445.76367 C 1035.2188 445.81757 1035.1751 445.86133 1035.1211 445.86133 L 984.55273 445.86133 C 984.49873 445.86133 984.45508 445.81767 984.45508 445.76367 L 984.45508 367.27734 C 984.45508 367.22344 984.49873 367.17969 984.55273 367.17969 z M 1046.7363 367.17969 L 1097.3047 367.17969 C 1097.3587 367.17969 1097.4023 367.22334 1097.4023 367.27734 L 1097.4023 445.76367 C 1097.4023 445.81757 1097.3587 445.86133 1097.3047 445.86133 L 1046.7363 445.86133 C 1046.6823 445.86133 1046.6387 445.81767 1046.6387 445.76367 L 1046.6387 367.27734 C 1046.6387 367.22344 1046.6823 367.17969 1046.7363 367.17969 z M 1262.3672 367.17969 L 1312.9355 367.17969 C 1312.9895 367.17969 1313.0332 367.22334 1313.0332 367.27734 L 1313.0332 445.76367 C 1313.0332 445.81757 1312.9895 445.86133 1312.9355 445.86133 L 1262.3672 445.86133 C 1262.3132 445.86133 1262.2695 445.81767 1262.2695 445.76367 L 1262.2695 367.27734 C 1262.2695 367.22344 1262.3132 367.17969 1262.3672 367.17969 z M 1324.5527 367.17969 L 1375.1211 367.17969 C 1375.1751 367.17969 1375.2187 367.22334 1375.2188 367.27734 L 1375.2188 445.76367 C 1375.2188 445.81757 1375.1751 445.86133 1375.1211 445.86133 L 1324.5527 445.86133 C 1324.4987 445.86133 1324.4551 445.81767 1324.4551 445.76367 L 1324.4551 367.27734 C 1324.4551 367.22344 1324.4987 367.17969 1324.5527 367.17969 z M 1386.7363 367.17969 L 1437.3047 367.17969 C 1437.3587 367.17969 1437.4023 367.22334 1437.4023 367.27734 L 1437.4023 445.76367 C 1437.4023 445.81757 1437.3587 445.86133 1437.3047 445.86133 L 1386.7363 445.86133 C 1386.6823 445.86133 1386.6387 445.81767 1386.6387 445.76367 L 1386.6387 367.27734 C 1386.6387 367.22344 1386.6823 367.17969 1386.7363 367.17969 z M 786.57422 419.41211 L 807.99219 419.41211 C 808.03519 419.41211 808.07031 419.44683 808.07031 419.49023 L 808.07031 482.6543 C 808.07031 482.6977 808.03519 482.73242 807.99219 482.73242 L 786.57422 482.73242 C 786.53122 482.73242 786.49609 482.6977 786.49609 482.6543 L 786.49609 419.49023 C 786.49609 419.44683 786.53122 419.41211 786.57422 419.41211 z M 1146.5742 419.41211 L 1167.9922 419.41211 C 1168.0352 419.41211 1168.0703 419.44683 1168.0703 419.49023 L 1168.0703 482.6543 C 1168.0703 482.6977 1168.0352 482.73242 1167.9922 482.73242 L 1146.5742 482.73242 C 1146.5312 482.73242 1146.4961 482.6977 1146.4961 482.6543 L 1146.4961 419.49023 C 1146.4961 419.44683 1146.5312 419.41211 1146.5742 419.41211 z M 1486.5742 419.41211 L 1507.9922 419.41211 C 1508.0352 419.41211 1508.0703 419.44683 1508.0703 419.49023 L 1508.0703 482.6543 C 1508.0703 482.6977 1508.0352 482.73242 1507.9922 482.73242 L 1486.5742 482.73242 C 1486.5312 482.73242 1486.4961 482.6977 1486.4961 482.6543 L 1486.4961 419.49023 C 1486.4961 419.44683 1486.5312 419.41211 1486.5742 419.41211 z M 562.36719 485.4707 L 612.93555 485.4707 C 612.98955 485.4707 613.0332 485.51446 613.0332 485.56836 L 613.0332 564.05664 C 613.0332 564.11054 612.98955 564.1543 612.93555 564.1543 L 562.36719 564.1543 C 562.31319 564.1543 562.26953 564.11064 562.26953 564.05664 L 562.26953 485.56836 C 562.26953 485.51446 562.31319 485.4707 562.36719 485.4707 z M 624.55273 485.4707 L 675.12109 485.4707 C 675.17509 485.4707 675.21875 485.51446 675.21875 485.56836 L 675.21875 564.05664 C 675.21875 564.11054 675.17509 564.1543 675.12109 564.1543 L 624.55273 564.1543 C 624.49873 564.1543 624.45508 564.11064 624.45508 564.05664 L 624.45508 485.56836 C 624.45508 485.51446 624.49873 485.4707 624.55273 485.4707 z M 686.73633 485.4707 L 737.30469 485.4707 C 737.35869 485.4707 737.40234 485.51446 737.40234 485.56836 L 737.40234 564.05664 C 737.40234 564.11054 737.35869 564.1543 737.30469 564.1543 L 686.73633 564.1543 C 686.68233 564.1543 686.63867 564.11064 686.63867 564.05664 L 686.63867 485.56836 C 686.63867 485.51446 686.68233 485.4707 686.73633 485.4707 z M 922.36719 485.4707 L 972.93555 485.4707 C 972.98955 485.4707 973.0332 485.51446 973.0332 485.56836 L 973.0332 564.05664 C 973.0332 564.11054 972.98955 564.1543 972.93555 564.1543 L 922.36719 564.1543 C 922.31319 564.1543 922.26953 564.11064 922.26953 564.05664 L 922.26953 485.56836 C 922.26953 485.51446 922.31319 485.4707 922.36719 485.4707 z M 984.55273 485.4707 L 1035.1211 485.4707 C 1035.1751 485.4707 1035.2188 485.51446 1035.2188 485.56836 L 1035.2188 564.05664 C 1035.2188 564.11054 1035.1751 564.1543 1035.1211 564.1543 L 984.55273 564.1543 C 984.49873 564.1543 984.45508 564.11064 984.45508 564.05664 L 984.45508 485.56836 C 984.45508 485.51446 984.49873 485.4707 984.55273 485.4707 z M 1046.7363 485.4707 L 1097.3047 485.4707 C 1097.3587 485.4707 1097.4023 485.51446 1097.4023 485.56836 L 1097.4023 564.05664 C 1097.4023 564.11054 1097.3587 564.1543 1097.3047 564.1543 L 1046.7363 564.1543 C 1046.6823 564.1543 1046.6387 564.11064 1046.6387 564.05664 L 1046.6387 485.56836 C 1046.6387 485.51446 1046.6823 485.4707 1046.7363 485.4707 z M 1262.3672 485.4707 L 1312.9355 485.4707 C 1312.9895 485.4707 1313.0332 485.51446 1313.0332 485.56836 L 1313.0332 564.05664 C 1313.0332 564.11054 1312.9895 564.1543 1312.9355 564.1543 L 1262.3672 564.1543 C 1262.3132 564.1543 1262.2695 564.11064 1262.2695 564.05664 L 1262.2695 485.56836 C 1262.2695 485.51446 1262.3132 485.4707 1262.3672 485.4707 z M 1324.5527 485.4707 L 1375.1211 485.4707 C 1375.1751 485.4707 1375.2187 485.51446 1375.2188 485.56836 L 1375.2188 564.05664 C 1375.2188 564.11054 1375.1751 564.1543 1375.1211 564.1543 L 1324.5527 564.1543 C 1324.4987 564.1543 1324.4551 564.11064 1324.4551 564.05664 L 1324.4551 485.56836 C 1324.4551 485.51446 1324.4987 485.4707 1324.5527 485.4707 z M 1386.7363 485.4707 L 1437.3047 485.4707 C 1437.3587 485.4707 1437.4023 485.51446 1437.4023 485.56836 L 1437.4023 564.05664 C 1437.4023 564.11054 1437.3587 564.1543 1437.3047 564.1543 L 1386.7363 564.1543 C 1386.6823 564.1543 1386.6387 564.11064 1386.6387 564.05664 L 1386.6387 485.56836 C 1386.6387 485.51446 1386.6823 485.4707 1386.7363 485.4707 z M 786.57422 537.70312 L 807.99219 537.70312 C 808.03519 537.70312 808.07031 537.73785 808.07031 537.78125 L 808.07031 600.94531 C 808.07031 600.98871 808.03519 601.02344 807.99219 601.02344 L 786.57422 601.02344 C 786.53122 601.02344 786.49609 600.98881 786.49609 600.94531 L 786.49609 537.78125 C 786.49609 537.73785 786.53122 537.70312 786.57422 537.70312 z M 1146.5742 537.70312 L 1167.9922 537.70312 C 1168.0352 537.70312 1168.0703 537.73785 1168.0703 537.78125 L 1168.0703 600.94531 C 1168.0703 600.98871 1168.0352 601.02344 1167.9922 601.02344 L 1146.5742 601.02344 C 1146.5312 601.02344 1146.4961 600.98881 1146.4961 600.94531 L 1146.4961 537.78125 C 1146.4961 537.73785 1146.5312 537.70312 1146.5742 537.70312 z M 1486.5742 537.70312 L 1507.9922 537.70312 C 1508.0352 537.70312 1508.0703 537.73785 1508.0703 537.78125 L 1508.0703 600.94531 C 1508.0703 600.98871 1508.0352 601.02344 1507.9922 601.02344 L 1486.5742 601.02344 C 1486.5312 601.02344 1486.4961 600.98881 1486.4961 600.94531 L 1486.4961 537.78125 C 1486.4961 537.73785 1486.5312 537.70312 1486.5742 537.70312 z M 562.36719 603.76172 L 612.93555 603.76172 C 612.98955 603.76172 613.0332 603.80538 613.0332 603.85938 L 613.0332 682.34766 C 613.0332 682.40156 612.98955 682.44531 612.93555 682.44531 L 562.36719 682.44531 C 562.31319 682.44531 562.26953 682.40166 562.26953 682.34766 L 562.26953 603.85938 C 562.26953 603.80548 562.31319 603.76172 562.36719 603.76172 z M 624.55273 603.76172 L 675.12109 603.76172 C 675.17509 603.76172 675.21875 603.80538 675.21875 603.85938 L 675.21875 682.34766 C 675.21875 682.40156 675.17509 682.44531 675.12109 682.44531 L 624.55273 682.44531 C 624.49873 682.44531 624.45508 682.40166 624.45508 682.34766 L 624.45508 603.85938 C 624.45508 603.80548 624.49873 603.76172 624.55273 603.76172 z M 686.73633 603.76172 L 737.30469 603.76172 C 737.35869 603.76172 737.40234 603.80538 737.40234 603.85938 L 737.40234 682.34766 C 737.40234 682.40156 737.35869 682.44531 737.30469 682.44531 L 686.73633 682.44531 C 686.68233 682.44531 686.63867 682.40166 686.63867 682.34766 L 686.63867 603.85938 C 686.63867 603.80548 686.68233 603.76172 686.73633 603.76172 z M 922.36719 603.76172 L 972.93555 603.76172 C 972.98955 603.76172 973.0332 603.80538 973.0332 603.85938 L 973.0332 682.34766 C 973.0332 682.40156 972.98955 682.44531 972.93555 682.44531 L 922.36719 682.44531 C 922.31319 682.44531 922.26953 682.40166 922.26953 682.34766 L 922.26953 603.85938 C 922.26953 603.80548 922.31319 603.76172 922.36719 603.76172 z M 984.55273 603.76172 L 1035.1211 603.76172 C 1035.1751 603.76172 1035.2188 603.80538 1035.2188 603.85938 L 1035.2188 682.34766 C 1035.2188 682.40156 1035.1751 682.44531 1035.1211 682.44531 L 984.55273 682.44531 C 984.49873 682.44531 984.45508 682.40166 984.45508 682.34766 L 984.45508 603.85938 C 984.45508 603.80548 984.49873 603.76172 984.55273 603.76172 z M 1046.7363 603.76172 L 1097.3047 603.76172 C 1097.3587 603.76172 1097.4023 603.80538 1097.4023 603.85938 L 1097.4023 682.34766 C 1097.4023 682.40156 1097.3587 682.44531 1097.3047 682.44531 L 1046.7363 682.44531 C 1046.6823 682.44531 1046.6387 682.40166 1046.6387 682.34766 L 1046.6387 603.85938 C 1046.6387 603.80548 1046.6823 603.76172 1046.7363 603.76172 z M 1262.3672 603.76172 L 1312.9355 603.76172 C 1312.9895 603.76172 1313.0332 603.80538 1313.0332 603.85938 L 1313.0332 682.34766 C 1313.0332 682.40156 1312.9895 682.44531 1312.9355 682.44531 L 1262.3672 682.44531 C 1262.3132 682.44531 1262.2695 682.40166 1262.2695 682.34766 L 1262.2695 603.85938 C 1262.2695 603.80548 1262.3132 603.76172 1262.3672 603.76172 z M 1324.5527 603.76172 L 1375.1211 603.76172 C 1375.1751 603.76172 1375.2187 603.80538 1375.2188 603.85938 L 1375.2188 682.34766 C 1375.2188 682.40156 1375.1751 682.44531 1375.1211 682.44531 L 1324.5527 682.44531 C 1324.4987 682.44531 1324.4551 682.40166 1324.4551 682.34766 L 1324.4551 603.85938 C 1324.4551 603.80548 1324.4987 603.76172 1324.5527 603.76172 z M 1386.7363 603.76172 L 1437.3047 603.76172 C 1437.3587 603.76172 1437.4023 603.80538 1437.4023 603.85938 L 1437.4023 682.34766 C 1437.4023 682.40156 1437.3587 682.44531 1437.3047 682.44531 L 1386.7363 682.44531 C 1386.6823 682.44531 1386.6387 682.40166 1386.6387 682.34766 L 1386.6387 603.85938 C 1386.6387 603.80548 1386.6823 603.76172 1386.7363 603.76172 z M 786.57422 655.99414 L 807.99219 655.99414 C 808.03519 655.99414 808.07031 656.02887 808.07031 656.07227 L 808.07031 719.23633 C 808.07031 719.27973 808.03519 719.31445 807.99219 719.31445 L 786.57422 719.31445 C 786.53122 719.31445 786.49609 719.27983 786.49609 719.23633 L 786.49609 656.07227 C 786.49609 656.02887 786.53122 655.99414 786.57422 655.99414 z M 1146.5742 655.99414 L 1167.9922 655.99414 C 1168.0352 655.99414 1168.0703 656.02887 1168.0703 656.07227 L 1168.0703 719.23633 C 1168.0703 719.27973 1168.0352 719.31445 1167.9922 719.31445 L 1146.5742 719.31445 C 1146.5312 719.31445 1146.4961 719.27983 1146.4961 719.23633 L 1146.4961 656.07227 C 1146.4961 656.02887 1146.5312 655.99414 1146.5742 655.99414 z M 1486.5742 655.99414 L 1507.9922 655.99414 C 1508.0352 655.99414 1508.0703 656.02887 1508.0703 656.07227 L 1508.0703 719.23633 C 1508.0703 719.27973 1508.0352 719.31445 1507.9922 719.31445 L 1486.5742 719.31445 C 1486.5312 719.31445 1486.4961 719.27983 1486.4961 719.23633 L 1486.4961 656.07227 C 1486.4961 656.02887 1486.5312 655.99414 1486.5742 655.99414 z M 562.36719 722.05273 L 612.93555 722.05273 C 612.98955 722.05273 613.0332 722.09639 613.0332 722.15039 L 613.0332 800.63867 C 613.0332 800.69257 612.98955 800.73633 612.93555 800.73633 L 562.36719 800.73633 C 562.31319 800.73633 562.26953 800.69267 562.26953 800.63867 L 562.26953 722.15039 C 562.26953 722.09649 562.31319 722.05273 562.36719 722.05273 z M 624.55273 722.05273 L 675.12109 722.05273 C 675.17509 722.05273 675.21875 722.09639 675.21875 722.15039 L 675.21875 800.63867 C 675.21875 800.69257 675.17509 800.73633 675.12109 800.73633 L 624.55273 800.73633 C 624.49873 800.73633 624.45508 800.69267 624.45508 800.63867 L 624.45508 722.15039 C 624.45508 722.09649 624.49873 722.05273 624.55273 722.05273 z M 686.73633 722.05273 L 737.30469 722.05273 C 737.35869 722.05273 737.40234 722.09639 737.40234 722.15039 L 737.40234 800.63867 C 737.40234 800.69257 737.35869 800.73633 737.30469 800.73633 L 686.73633 800.73633 C 686.68233 800.73633 686.63867 800.69267 686.63867 800.63867 L 686.63867 722.15039 C 686.63867 722.09649 686.68233 722.05273 686.73633 722.05273 z M 922.36719 722.05273 L 972.93555 722.05273 C 972.98955 722.05273 973.0332 722.09639 973.0332 722.15039 L 973.0332 800.63867 C 973.0332 800.69257 972.98955 800.73633 972.93555 800.73633 L 922.36719 800.73633 C 922.31319 800.73633 922.26953 800.69267 922.26953 800.63867 L 922.26953 722.15039 C 922.26953 722.09649 922.31319 722.05273 922.36719 722.05273 z M 984.55273 722.05273 L 1035.1211 722.05273 C 1035.1751 722.05273 1035.2188 722.09639 1035.2188 722.15039 L 1035.2188 800.63867 C 1035.2188 800.69257 1035.1751 800.73633 1035.1211 800.73633 L 984.55273 800.73633 C 984.49873 800.73633 984.45508 800.69267 984.45508 800.63867 L 984.45508 722.15039 C 984.45508 722.09649 984.49873 722.05273 984.55273 722.05273 z M 1046.7363 722.05273 L 1097.3047 722.05273 C 1097.3587 722.05273 1097.4023 722.09639 1097.4023 722.15039 L 1097.4023 800.63867 C 1097.4023 800.69257 1097.3587 800.73633 1097.3047 800.73633 L 1046.7363 800.73633 C 1046.6823 800.73633 1046.6387 800.69267 1046.6387 800.63867 L 1046.6387 722.15039 C 1046.6387 722.09649 1046.6823 722.05273 1046.7363 722.05273 z M 1262.3672 722.05273 L 1312.9355 722.05273 C 1312.9895 722.05273 1313.0332 722.09639 1313.0332 722.15039 L 1313.0332 800.63867 C 1313.0332 800.69257 1312.9895 800.73633 1312.9355 800.73633 L 1262.3672 800.73633 C 1262.3132 800.73633 1262.2695 800.69267 1262.2695 800.63867 L 1262.2695 722.15039 C 1262.2695 722.09649 1262.3132 722.05273 1262.3672 722.05273 z M 1324.5527 722.05273 L 1375.1211 722.05273 C 1375.1751 722.05273 1375.2187 722.09639 1375.2188 722.15039 L 1375.2188 800.63867 C 1375.2188 800.69257 1375.1751 800.73633 1375.1211 800.73633 L 1324.5527 800.73633 C 1324.4987 800.73633 1324.4551 800.69267 1324.4551 800.63867 L 1324.4551 722.15039 C 1324.4551 722.09649 1324.4987 722.05273 1324.5527 722.05273 z M 1386.7363 722.05273 L 1437.3047 722.05273 C 1437.3587 722.05273 1437.4023 722.09639 1437.4023 722.15039 L 1437.4023 800.63867 C 1437.4023 800.69257 1437.3587 800.73633 1437.3047 800.73633 L 1386.7363 800.73633 C 1386.6823 800.73633 1386.6387 800.69267 1386.6387 800.63867 L 1386.6387 722.15039 C 1386.6387 722.09649 1386.6823 722.05273 1386.7363 722.05273 z M 786.57422 774.28516 L 807.99219 774.28516 C 808.03519 774.28516 808.07031 774.32173 808.07031 774.36523 L 808.07031 837.52734 C 808.07031 837.57074 808.03519 837.60547 807.99219 837.60547 L 786.57422 837.60547 C 786.53122 837.60547 786.49609 837.57074 786.49609 837.52734 L 786.49609 774.36523 C 786.49609 774.32183 786.53122 774.28516 786.57422 774.28516 z M 1146.5742 774.28516 L 1167.9922 774.28516 C 1168.0352 774.28516 1168.0703 774.32173 1168.0703 774.36523 L 1168.0703 837.52734 C 1168.0703 837.57074 1168.0352 837.60547 1167.9922 837.60547 L 1146.5742 837.60547 C 1146.5312 837.60547 1146.4961 837.57074 1146.4961 837.52734 L 1146.4961 774.36523 C 1146.4961 774.32183 1146.5312 774.28516 1146.5742 774.28516 z M 1486.5742 774.28516 L 1507.9922 774.28516 C 1508.0352 774.28516 1508.0703 774.32173 1508.0703 774.36523 L 1508.0703 837.52734 C 1508.0703 837.57074 1508.0352 837.60547 1507.9922 837.60547 L 1486.5742 837.60547 C 1486.5312 837.60547 1486.4961 837.57074 1486.4961 837.52734 L 1486.4961 774.36523 C 1486.4961 774.32183 1486.5312 774.28516 1486.5742 774.28516 z M 562.36719 840.3457 L 612.93555 840.3457 C 612.98955 840.3457 613.0332 840.38741 613.0332 840.44141 L 613.0332 918.92969 C 613.0332 918.98359 612.98955 919.02734 612.93555 919.02734 L 562.36719 919.02734 C 562.31319 919.02734 562.26953 918.98369 562.26953 918.92969 L 562.26953 840.44141 C 562.26953 840.38751 562.31319 840.3457 562.36719 840.3457 z M 624.55273 840.3457 L 675.12109 840.3457 C 675.17509 840.3457 675.21875 840.38741 675.21875 840.44141 L 675.21875 918.92969 C 675.21875 918.98359 675.17509 919.02734 675.12109 919.02734 L 624.55273 919.02734 C 624.49873 919.02734 624.45508 918.98369 624.45508 918.92969 L 624.45508 840.44141 C 624.45508 840.38751 624.49873 840.3457 624.55273 840.3457 z M 686.73633 840.3457 L 737.30469 840.3457 C 737.35869 840.3457 737.40234 840.38741 737.40234 840.44141 L 737.40234 918.92969 C 737.40234 918.98359 737.35869 919.02734 737.30469 919.02734 L 686.73633 919.02734 C 686.68233 919.02734 686.63867 918.98369 686.63867 918.92969 L 686.63867 840.44141 C 686.63867 840.38751 686.68233 840.3457 686.73633 840.3457 z M 922.36719 840.3457 L 972.93555 840.3457 C 972.98955 840.3457 973.0332 840.38741 973.0332 840.44141 L 973.0332 918.92969 C 973.0332 918.98359 972.98955 919.02734 972.93555 919.02734 L 922.36719 919.02734 C 922.31319 919.02734 922.26953 918.98369 922.26953 918.92969 L 922.26953 840.44141 C 922.26953 840.38751 922.31319 840.3457 922.36719 840.3457 z M 984.55273 840.3457 L 1035.1211 840.3457 C 1035.1751 840.3457 1035.2188 840.38741 1035.2188 840.44141 L 1035.2188 918.92969 C 1035.2188 918.98359 1035.1751 919.02734 1035.1211 919.02734 L 984.55273 919.02734 C 984.49873 919.02734 984.45508 918.98369 984.45508 918.92969 L 984.45508 840.44141 C 984.45508 840.38751 984.49873 840.3457 984.55273 840.3457 z M 1046.7363 840.3457 L 1097.3047 840.3457 C 1097.3587 840.3457 1097.4023 840.38741 1097.4023 840.44141 L 1097.4023 918.92969 C 1097.4023 918.98359 1097.3587 919.02734 1097.3047 919.02734 L 1046.7363 919.02734 C 1046.6823 919.02734 1046.6387 918.98369 1046.6387 918.92969 L 1046.6387 840.44141 C 1046.6387 840.38751 1046.6823 840.3457 1046.7363 840.3457 z M 1262.3672 840.3457 L 1312.9355 840.3457 C 1312.9895 840.3457 1313.0332 840.38741 1313.0332 840.44141 L 1313.0332 918.92969 C 1313.0332 918.98359 1312.9895 919.02734 1312.9355 919.02734 L 1262.3672 919.02734 C 1262.3132 919.02734 1262.2695 918.98369 1262.2695 918.92969 L 1262.2695 840.44141 C 1262.2695 840.38751 1262.3132 840.3457 1262.3672 840.3457 z M 1324.5527 840.3457 L 1375.1211 840.3457 C 1375.1751 840.3457 1375.2187 840.38741 1375.2188 840.44141 L 1375.2188 918.92969 C 1375.2188 918.98359 1375.1751 919.02734 1375.1211 919.02734 L 1324.5527 919.02734 C 1324.4987 919.02734 1324.4551 918.98369 1324.4551 918.92969 L 1324.4551 840.44141 C 1324.4551 840.38751 1324.4987 840.3457 1324.5527 840.3457 z M 1386.7363 840.3457 L 1437.3047 840.3457 C 1437.3587 840.3457 1437.4023 840.38741 1437.4023 840.44141 L 1437.4023 918.92969 C 1437.4023 918.98359 1437.3587 919.02734 1437.3047 919.02734 L 1386.7363 919.02734 C 1386.6823 919.02734 1386.6387 918.98369 1386.6387 918.92969 L 1386.6387 840.44141 C 1386.6387 840.38751 1386.6823 840.3457 1386.7363 840.3457 z M 786.57422 892.57812 L 807.99219 892.57812 C 808.03519 892.57812 808.07031 892.61275 808.07031 892.65625 L 808.07031 955.82031 C 808.07031 955.86371 808.03519 955.89844 807.99219 955.89844 L 786.57422 955.89844 C 786.53122 955.89844 786.49609 955.86381 786.49609 955.82031 L 786.49609 892.65625 C 786.49609 892.61285 786.53122 892.57812 786.57422 892.57812 z M 1146.5742 892.57812 L 1167.9922 892.57812 C 1168.0352 892.57812 1168.0703 892.61275 1168.0703 892.65625 L 1168.0703 955.82031 C 1168.0703 955.86371 1168.0352 955.89844 1167.9922 955.89844 L 1146.5742 955.89844 C 1146.5312 955.89844 1146.4961 955.86381 1146.4961 955.82031 L 1146.4961 892.65625 C 1146.4961 892.61285 1146.5312 892.57812 1146.5742 892.57812 z M 1486.5742 892.57812 L 1507.9922 892.57812 C 1508.0352 892.57812 1508.0703 892.61275 1508.0703 892.65625 L 1508.0703 955.82031 C 1508.0703 955.86371 1508.0352 955.89844 1507.9922 955.89844 L 1486.5742 955.89844 C 1486.5312 955.89844 1486.4961 955.86381 1486.4961 955.82031 L 1486.4961 892.65625 C 1486.4961 892.61285 1486.5312 892.57812 1486.5742 892.57812 z M 562.36719 958.63672 L 612.93555 958.63672 C 612.98955 958.63672 613.0332 958.68038 613.0332 958.73438 L 613.0332 1037.2227 C 613.0332 1037.2767 612.98955 1037.3184 612.93555 1037.3184 L 562.36719 1037.3184 C 562.31319 1037.3184 562.26953 1037.2767 562.26953 1037.2227 L 562.26953 958.73438 C 562.26953 958.68048 562.31319 958.63672 562.36719 958.63672 z M 624.55273 958.63672 L 675.12109 958.63672 C 675.17509 958.63672 675.21875 958.68038 675.21875 958.73438 L 675.21875 1037.2227 C 675.21875 1037.2767 675.17509 1037.3184 675.12109 1037.3184 L 624.55273 1037.3184 C 624.49873 1037.3184 624.45508 1037.2767 624.45508 1037.2227 L 624.45508 958.73438 C 624.45508 958.68048 624.49873 958.63672 624.55273 958.63672 z M 686.73633 958.63672 L 737.30469 958.63672 C 737.35869 958.63672 737.40234 958.68038 737.40234 958.73438 L 737.40234 1037.2227 C 737.40234 1037.2767 737.35869 1037.3184 737.30469 1037.3184 L 686.73633 1037.3184 C 686.68233 1037.3184 686.63867 1037.2767 686.63867 1037.2227 L 686.63867 958.73438 C 686.63867 958.68048 686.68233 958.63672 686.73633 958.63672 z M 922.36719 958.63672 L 972.93555 958.63672 C 972.98955 958.63672 973.0332 958.68038 973.0332 958.73438 L 973.0332 1037.2227 C 973.0332 1037.2767 972.98955 1037.3184 972.93555 1037.3184 L 922.36719 1037.3184 C 922.31319 1037.3184 922.26953 1037.2767 922.26953 1037.2227 L 922.26953 958.73438 C 922.26953 958.68048 922.31319 958.63672 922.36719 958.63672 z M 984.55273 958.63672 L 1035.1211 958.63672 C 1035.1751 958.63672 1035.2188 958.68038 1035.2188 958.73438 L 1035.2188 1037.2227 C 1035.2188 1037.2767 1035.1751 1037.3184 1035.1211 1037.3184 L 984.55273 1037.3184 C 984.49873 1037.3184 984.45508 1037.2767 984.45508 1037.2227 L 984.45508 958.73438 C 984.45508 958.68048 984.49873 958.63672 984.55273 958.63672 z M 1046.7363 958.63672 L 1097.3047 958.63672 C 1097.3587 958.63672 1097.4023 958.68038 1097.4023 958.73438 L 1097.4023 1037.2227 C 1097.4023 1037.2767 1097.3587 1037.3184 1097.3047 1037.3184 L 1046.7363 1037.3184 C 1046.6823 1037.3184 1046.6387 1037.2767 1046.6387 1037.2227 L 1046.6387 958.73438 C 1046.6387 958.68048 1046.6823 958.63672 1046.7363 958.63672 z M 1262.3672 958.63672 L 1312.9355 958.63672 C 1312.9895 958.63672 1313.0332 958.68038 1313.0332 958.73438 L 1313.0332 1037.2227 C 1313.0332 1037.2767 1312.9895 1037.3184 1312.9355 1037.3184 L 1262.3672 1037.3184 C 1262.3132 1037.3184 1262.2695 1037.2767 1262.2695 1037.2227 L 1262.2695 958.73438 C 1262.2695 958.68048 1262.3132 958.63672 1262.3672 958.63672 z M 1324.5527 958.63672 L 1375.1211 958.63672 C 1375.1751 958.63672 1375.2187 958.68038 1375.2188 958.73438 L 1375.2188 1037.2227 C 1375.2188 1037.2767 1375.1751 1037.3184 1375.1211 1037.3184 L 1324.5527 1037.3184 C 1324.4987 1037.3184 1324.4551 1037.2767 1324.4551 1037.2227 L 1324.4551 958.73438 C 1324.4551 958.68048 1324.4987 958.63672 1324.5527 958.63672 z M 1386.7363 958.63672 L 1437.3047 958.63672 C 1437.3587 958.63672 1437.4023 958.68038 1437.4023 958.73438 L 1437.4023 1037.2227 C 1437.4023 1037.2767 1437.3587 1037.3184 1437.3047 1037.3184 L 1386.7363 1037.3184 C 1386.6823 1037.3184 1386.6387 1037.2767 1386.6387 1037.2227 L 1386.6387 958.73438 C 1386.6387 958.68048 1386.6823 958.63672 1386.7363 958.63672 z "
       transform="translate(0,-6.1035164e-5)"
       id="rect4336" />
  </g>
</svg>
